<svg width="509" height="510" viewBox="0 0 509 510" fill="none" xmlns="http://www.w3.org/2000/svg">
<path d="M50.8774 229.075C57.3648 229.083 63.6047 231.567 68.322 236.02C73.0393 240.474 75.8781 246.56 76.2583 253.037C76.6385 259.513 74.5314 265.89 70.3676 270.865C66.2037 275.839 60.2974 279.037 53.8554 279.803L50.8774 279.981H25.4246C18.9372 279.974 12.6974 277.49 7.98007 273.036C3.26274 268.583 0.423972 262.496 0.0437797 256.02C-0.336412 249.544 1.77067 243.167 5.9345 238.192C10.0983 233.217 16.0046 230.02 22.4466 229.254L25.4246 229.075H50.8774ZM254.5 0C260.734 0.000822395 266.751 2.28964 271.41 6.43232C276.069 10.575 279.045 16.2834 279.775 22.4748L279.953 25.4528V50.9056C279.946 57.393 277.462 63.6329 273.008 68.3502C268.555 73.0675 262.468 75.9063 255.992 76.2865C249.515 76.6667 243.138 74.5596 238.164 70.3958C233.189 66.2319 229.992 60.3256 229.225 53.8836L229.047 50.9056V25.4528C229.047 18.7023 231.729 12.2283 236.502 7.45496C241.275 2.68163 247.749 0 254.5 0ZM483.575 229.075C490.063 229.083 496.303 231.567 501.02 236.02C505.737 240.474 508.576 246.56 508.956 253.037C509.336 259.513 507.229 265.89 503.065 270.865C498.902 275.839 492.995 279.037 486.553 279.803L483.575 279.981H458.123C451.635 279.974 445.395 277.49 440.678 273.036C435.961 268.583 433.122 262.496 432.742 256.02C432.362 249.544 434.469 243.167 438.632 238.192C442.796 233.217 448.703 230.02 455.145 229.254L458.123 229.075H483.575ZM73.6068 73.635C77.9896 69.2526 83.8208 66.62 90.0065 66.2311C96.1922 65.8421 102.307 67.7236 107.205 71.5224L109.597 73.635L127.414 91.452C131.979 96.0324 134.629 102.179 134.827 108.642C135.024 115.106 132.754 121.403 128.477 126.253C124.2 131.104 118.237 134.144 111.799 134.757C105.362 135.371 98.9321 133.511 93.8163 129.555L91.4238 127.442L73.6068 109.625C68.8351 104.852 66.1546 98.3793 66.1546 91.6301C66.1546 84.881 68.8351 78.4081 73.6068 73.635ZM399.403 73.635C403.983 69.0701 410.13 66.4198 416.593 66.2224C423.057 66.0251 429.354 68.2954 434.204 72.5723C439.054 76.8493 442.095 82.8121 442.708 89.2497C443.322 95.6873 441.461 102.117 437.506 107.233L435.393 109.625L417.576 127.442C412.996 132.007 406.85 134.657 400.386 134.855C393.922 135.052 387.626 132.782 382.775 128.505C377.925 124.228 374.884 118.265 374.271 111.828C373.658 105.39 375.518 98.9603 379.473 93.8445L381.586 91.452L399.403 73.635ZM305.406 407.245C312.156 407.245 318.63 409.927 323.404 414.7C328.177 419.473 330.858 425.947 330.858 432.698C330.858 452.949 322.814 472.372 308.494 486.692C294.174 501.012 274.752 509.056 254.5 509.056C234.248 509.056 214.826 501.012 200.506 486.692C186.186 472.372 178.142 452.949 178.142 432.698C178.142 426.464 180.431 420.447 184.574 415.788C188.717 411.129 194.425 408.153 200.616 407.423L203.594 407.245H305.406ZM254.5 101.811C286.553 101.811 317.793 111.896 343.795 130.638C369.798 149.379 389.244 175.827 399.38 206.235C409.516 236.643 409.827 269.469 400.27 300.063C390.713 330.658 371.772 357.47 346.13 376.702C342.622 379.337 338.492 381.02 334.142 381.589L330.858 381.792H178.142C172.634 381.792 167.276 380.006 162.87 376.702C137.228 357.47 118.287 330.658 108.73 300.063C99.1726 269.469 99.4841 236.643 109.62 206.235C119.756 175.827 139.202 149.379 165.205 130.638C191.207 111.896 222.447 101.811 254.5 101.811Z" fill="#F4CF08"/>
</svg>
